<svg width="449" height="363" viewBox="0 0 449 363" fill="none" xmlns="http://www.w3.org/2000/svg"><g clip-path="url(#clip0_355_10024)"><path d="m337.93 141.38l-2.75-.31c1.62-18.6-11.72-35.29-30.24-37.8l.31-2.75c20.03 2.68 34.47 20.74 32.68 40.86zm39.49-1.38c3.67-37.13-23.05-70.54-60.07-75.12l.3-2.75c38.54 4.74 66.36 39.53 62.52 78.17l-2.75-.31zm-46.07-118.39c57.8 6.89 99.55 59.09 93.57 116.99l-2.75-.31c5.81-56.38-34.84-107.21-91.12-113.93l.3-2.75z" fill="#21B8D2" stroke="#21B8D2" stroke-width="1.7"/><path d="m260.78 183.72c-3.3.47-6.37-1.82-6.84-5.12c-.06-.35-.08-.71-.07-1.06l-20.03-7.7l9.07-6.49l17.64 8.31c3.33.33 5.77 3.3 5.44 6.64c-.28 2.79-2.44 5.03-5.22 5.41h.01z" fill="#FFB7B7"/><path d="m249.33 178.19l3.13-11.03l-.15-.11l-29.31-19.91l-25.33-25.41l-14.75 5.89l.97 4.67l.06.06l33.68 30.16l.03.02l31.67 15.66z" fill="#21B8D2"/><path d="m219.31 203.4l-45.36-6.36l3.99-27.83h33.39l7.98 34.19z" fill="#FFB6B6"/><path d="m142.25 339.67l9.3 2.16l12.76-34.86l-13.73-3.19l-8.33 35.89z" fill="#FFB6B6"/><path d="m133.59 354.64l6.67 1.55l2.66-6.02l1.58 7.01l17.7 4.11c2.19.51 4.39-.86 4.9-3.06c.3-1.3-.06-2.68-.96-3.67l-11.86-13.04l1.48-6.37l-15.07-2.56l-7.1 22.05z" fill="#21B8D2"/><path d="m199.65 344.85h9.55l4.55-36.84h-14.1v36.84z" fill="#FFB6B6"/><path d="m194.61 361.4h6.84l1.23-6.47l3.13 6.47h18.16c2.26 0 4.09-1.83 4.09-4.08c0-1.35-.66-2.61-1.77-3.37l-14.5-10.02v-6.54l-15.26.91l-1.93 23.09l.01.01z" fill="#21B8D2"/><path d="m173.38 192.32l44.35-3.53c13.09 30.57 4.77 79.38-5.29 134.32l-14.27 1.84l-1.1-88.28l-35.77 82.13l-14.86-.76l26.94-125.73v.01z" fill="#161254"/><path d="m175.46 177.35l37.53-1.43l2.1-24.55c1.62-4.5 1.65-8.36.08-11.47c-1.35-2.56-3.61-4.52-6.34-5.48l-8.21-9.92c-2.14-2.58-5.33-4.07-8.68-4.05l-21.34.15c-.51-.31-3.63-1.89-9.79.77c-6.67 2.9-5.12 12.95-5.1 13.05l.01.09l.08.07l14.19 11.96l5.48 30.82l-.01-.01z" fill="#21B8D2"/><path d="m.63 362.03h376.87c.34 0 .63-.28.63-.63c0-.35-.29-.63-.63-.63h-376.87c-.35 0-.63.28-.63.63c0 .35.28.63.63.63z" fill="#161254"/><path d="m209.14 188.74h.01l.17-.19l-.18.19z" fill="white"/><path d="m112.17 100.6c.78-4.82-2.48-9.35-7.3-10.13c-4.81-.78-9.34 2.49-10.12 7.3c-.78 4.81 2.48 9.34 7.3 10.13c4.81.78 9.34-2.49 10.12-7.3z" fill="#161254"/><path d="m294.61 247.47c2.99 0 5.4-2.43 5.4-5.41c0-2.98-2.41-5.4-5.4-5.4c-2.98 0-5.4 2.42-5.4 5.4c0 2.98 2.42 5.41 5.4 5.41z" fill="#161254"/><path d="m30.29 294.91c4.87 0 8.83-3.95 8.83-8.83c0-4.87-3.96-8.83-8.83-8.83c-4.88 0-8.83 3.96-8.83 8.83c0 4.88 3.95 8.83 8.83 8.83z" fill="#161254"/><path d="m179.2 114.28c-11.77 0-21.31-9.55-21.31-21.32c0-11.77 9.54-21.32 21.31-21.32c11.78 0 21.32 9.55 21.32 21.32c0 11.77-9.54 21.32-21.32 21.32z" fill="#161254"/><path d="m177.01 79.69c-4.58-4.65-10.13-8.24-16.26-10.52c-3.93-1.45-8.21-2.35-12.31-1.52c-4.11.83-8 3.67-9.14 7.7c-.94 3.3.02 6.85 1.48 9.95c1.46 3.1 3.4 5.98 4.57 9.2c3.99 10.89-1.62 22.95-12.51 26.93c-2.75 1.01-5.69 1.42-8.61 1.23c4.04.55 7.76 2.44 11.7 3.45c3.95 1.01 8.61.94 11.54-1.89c3.1-2.98 3.17-7.85 3.02-12.16l-.67-19.21c-.11-3.27-.21-6.64.97-9.69c1.17-3.05 3.97-5.72 7.24-5.69c2.48.02 4.67 1.52 6.66 3c1.98 1.49 4.09 3.06 6.55 3.28c2.47.22 5.29-1.6 5.1-4.07l.69.01h-.02z" fill="#161254"/><path d="m181.34 116.49c-8.67 0-15.69-7.03-15.69-15.69c0-8.67 7.02-15.69 15.69-15.69c8.66 0 15.69 7.02 15.69 15.69c0 8.66-7.03 15.69-15.69 15.69z" fill="#FFB7B7"/><path d="m203.41 99.61h-22.66l-.23-3.25l-1.16 3.25h-3.49l-.46-6.45l-2.3 6.45h-6.75v-.32c0-9.34 7.58-16.92 16.92-16.92h3.2c9.34 0 16.92 7.58 16.93 16.92v.32z" fill="#161254"/><path d="m169.78 111.3l-8.27-8.28l-1.39-18.33h18.26l-.45.45c-6.29 6.28-13.08 15.5-8.14 26.16h-.01z" fill="#161254"/><path d="m295.63 173.96l-.94-.52l14.25-25.79c4.55-8.25 1.56-18.63-6.69-23.18l-54.65-30.19c-8.25-4.56-18.63-1.56-23.18 6.68l-78.17 141.53c-4.56 8.24-1.56 18.62 6.68 23.18l54.66 30.19c8.24 4.55 18.62 1.56 23.17-6.69l53.79-97.36l.94.52l10.14-18.37z" fill="#E8E7EE"/><path d="m300.71 128.69l-7.13-3.94c-.39 3.31-3.4 5.69-6.72 5.3c-.78-.09-1.53-.33-2.22-.71l-31.31-17.3c-2.92-1.62-3.99-5.3-2.37-8.22c.38-.69.89-1.29 1.5-1.79l-6.67-3.68c-6.15-3.4-13.9-1.16-17.3 5l-78.06 141.31c-3.41 6.16-1.17 13.91 4.99 17.32l54.92 30.33c6.15 3.4 13.9 1.17 17.31-4.99l78.06-141.32c3.4-6.16 1.16-13.91-5-17.31z" fill="white"/><path d="m246.03 243.34l-65.85-36.37c-.68-.38-.92-1.22-.55-1.9l9.02-16.33c.37-.68 1.22-.92 1.9-.55l65.85 36.38c.67.37.91 1.21.54 1.89l-9.02 16.33c-.37.68-1.22.92-1.89.55zm-55.75-54.66c-.41-.22-.92-.08-1.14.33l-9.02 16.33c-.23.41-.08.91.32 1.14l65.85 36.37c.41.23.92.08 1.14-.33l9.02-16.33c.23-.41.08-.91-.32-1.14l-65.85-36.37z" fill="#E8E7EE"/><path d="m191.07 207.42c2.83 1.56 6.39.53 7.95-2.29c1.56-2.83.54-6.39-2.29-7.96c-2.83-1.56-6.39-.53-7.95 2.3c-1.56 2.83-.54 6.38 2.29 7.95z" fill="#E8E7EE"/><path d="m207.61 205.41c-.47-.26-1.06-.1-1.33.36c-.27.47-.1 1.07.36 1.33l.03.02l40.24 22.23c.47.27 1.07.11 1.33-.36c.27-.47.11-1.06-.35-1.33h-.01l-40.27-22.25z" fill="#E8E7EE"/><path d="m204.78 210.54c-.47-.26-1.06-.09-1.32.38c-.26.47-.09 1.06.38 1.32l40.24 22.23c.47.27 1.07.11 1.33-.36c.27-.47.11-1.07-.36-1.33l-40.27-22.25v.01z" fill="#E8E7EE"/><path d="m228.85 274.42l-65.84-36.37c-.68-.37-.92-1.22-.55-1.89l9.02-16.34c.37-.67 1.22-.91 1.9-.54l65.84 36.37c.68.37.92 1.22.55 1.89l-9.02 16.34c-.37.67-1.22.91-1.9.54zm-55.74-54.66c-.41-.22-.92-.07-1.14.33l-9.02 16.34c-.23.4-.08.91.33 1.13l65.84 36.38c.41.22.92.07 1.14-.33l9.02-16.34c.23-.4.08-.91-.32-1.13l-65.85-36.38z" fill="#E8E7EE"/><path d="m173.9 238.5c2.83 1.56 6.39.54 7.95-2.29c1.56-2.83.54-6.39-2.29-7.95c-2.83-1.56-6.39-.54-7.95 2.29c-1.57 2.83-.54 6.39 2.29 7.95z" fill="#E8E7EE"/><path d="m190.44 236.5c-.47-.26-1.06-.09-1.32.38c-.26.47-.09 1.06.38 1.32l40.24 22.23c.47.27 1.07.11 1.33-.36c.27-.47.11-1.06-.36-1.33l-40.27-22.24z" fill="#E8E7EE"/><path d="m187.61 241.62c-.47-.26-1.06-.09-1.32.38c-.26.47-.09 1.07.38 1.33l40.24 22.22c.47.27 1.07.11 1.34-.36c.26-.47.1-1.06-.37-1.33l-40.27-22.24z" fill="#E8E7EE"/><path d="m230.5 190.49c-12.79-7.06-17.44-23.15-10.38-35.94l.01-.02l.09-.15c7.08-12.65 23.18-17.24 35.88-10.23c12.8 7.07 17.44 23.17 10.37 35.97c-7.06 12.8-23.17 17.44-35.96 10.37zm25.33-45.85c-12.48-6.85-28.15-2.38-35.13 10.02l-.08.13c-6.92 12.53-2.38 28.3 10.15 35.22c12.53 6.92 28.29 2.38 35.22-10.15c6.92-12.53 2.38-28.29-10.15-35.22h-.01z" fill="#E8E7EE"/><path d="m247.33 174.81c-1.73 3.61-6.02 5.16-9.57 3.46c-3.54-1.71-5.02-6.01-3.29-9.62c.12-.25.26-.49.4-.72c2.05-3.71 9.98-4.22 13.69-10.93c1.93-3.49.82 14.11-1.23 17.81z" fill="#21B8D2"/><path d="m215.42 192.07c-3 1.48-6.62.25-8.1-2.74c-.15-.32-.28-.65-.38-.99l-21.44-1.09l6.6-8.99l19.35 2.42c3.27-.72 6.51 1.34 7.24 4.62c.61 2.74-.75 5.54-3.27 6.77z" fill="#FFB7B7"/><path d="m202.99 188.6v-10l-35-4.5l5.02-39.52l-13.98-7.55l-2.97 3.74v.08l-6.06 52.42l9.03 5.33h43.96z" fill="#21B8D2"/><path d="m322.66 318.96c-5.92-2.72-12.31-5.93-19.17-9.63c-35.46-19.12-79.06-48.94-122.78-83.97c-43.72-35.03-82.32-71.09-108.71-101.53c-12.85-14.83-22.11-27.53-27.52-37.75c-5.72-10.82-6.88-18.48-3.43-22.79c6.72-8.37 28.58-.83 45.74 6.98l-.63 1.38c-23.56-10.72-39.16-13.36-43.92-7.41c-6.07 7.57 5.2 28.92 30.91 58.59c26.32 30.38 64.86 66.37 108.51 101.35c43.65 34.97 87.17 64.74 122.55 83.82c34.56 18.63 57.86 24.97 63.93 17.4c5.03-6.29-1.84-22.12-19.35-44.58l1.2-.93c12.72 16.32 26.41 37.63 19.33 46.46c-3.44 4.3-11.18 4.84-22.98 1.61c-6.73-1.83-14.65-4.85-23.66-8.99l-.02-.01z" fill="#21B8D2"/><path d="m95.81 216.81c-16.33-7.51-31.26-15.06-44.33-22.44c-17.09-9.65-30.07-18.5-38.6-26.31c-9.03-8.26-12.69-15.09-10.89-20.3c3.51-10.15 26.64-10.39 45.42-8.8l-.12 1.51c-25.8-2.17-41.38.59-43.87 7.79c-3.17 9.17 14.62 25.5 48.8 44.8c35 19.77 83.39 40.72 136.26 59c52.86 18.28 103.85 31.69 143.59 37.77c38.81 5.93 62.88 4.08 66.05-5.09c2.63-7.61-9.16-20.21-33.2-35.48l.81-1.28c17.47 11.09 37.52 26.57 33.82 37.26c-1.8 5.21-8.9 8.32-21.1 9.25c-11.53.87-27.21-.19-46.61-3.16c-39.82-6.09-90.91-19.52-143.86-37.83c-33.21-11.48-64.68-24.03-92.17-36.67v-.02z" fill="#21B8D2"/></g><defs><clipPath id="clip0_355_10024"><rect width="448.237" height="362.032" fill="white"/></clipPath></defs></svg>