<svg width="449" height="363" viewBox="0 0 449 363" fill="none" xmlns="http://www.w3.org/2000/svg"><path d="m284.57 132.02h-1.55v-42.43c0-13.56-10.99-24.56-24.56-24.56h-89.9c-13.56 0-24.56 11-24.56 24.56v232.8c0 13.56 11 24.56 24.56 24.56h89.9c13.57 0 24.56-11 24.56-24.56v-160.16h1.55v-30.21z" fill="#E8E7EE"/><path d="m259.68 71.42h-11.74c1.82 4.45-.32 9.54-4.77 11.36c-1.05.43-2.16.65-3.3.65h-51.5c-4.81 0-8.71-3.9-8.71-8.72c0-1.13.22-2.25.64-3.29h-10.96c-10.13 0-18.34 8.21-18.34 18.34v232.46c0 10.13 8.21 18.35 18.34 18.35h90.34c10.13 0 18.34-8.22 18.34-18.35v-232.46c0-10.13-8.21-18.34-18.34-18.34z" fill="#B3E4ED"/><path d="m268.32 278h-108.31c-1.11 0-2.01-.9-2.01-2.01v-26.87c0-1.1.9-2 2.01-2h108.31c1.11 0 2.01.9 2.01 2v26.87c0 1.11-.9 2.01-2.01 2.01zm-108.31-30.08c-.67 0-1.21.54-1.21 1.21v26.86c0 .67.54 1.21 1.21 1.21h108.31c.67 0 1.21-.54 1.21-1.21v-26.87c0-.66-.54-1.2-1.21-1.2h-108.31z" fill="#E8E7EE"/><path d="m174.05 270.98c4.65 0 8.42-3.77 8.42-8.42c0-4.66-3.77-8.43-8.42-8.43c-4.66 0-8.43 3.77-8.43 8.43c0 4.65 3.78 8.42 8.43 8.42z" fill="#E8E7EE"/><path d="m193.51 256.94c-.77-.01-1.41.61-1.42 1.38c-.02.78.6 1.42 1.37 1.43h66.24c.78.01 1.42-.6 1.43-1.38c.02-.77-.6-1.42-1.37-1.43h-66.25z" fill="#E8E7EE"/><path d="m193.51 265.37c-.77 0-1.4.63-1.4 1.4c0 .77.63 1.4 1.4 1.4h66.19c.78.01 1.42-.6 1.43-1.38c.01-.78-.61-1.42-1.38-1.43h-66.25l.01.01z" fill="#E8E7EE"/><path d="m268.32 321.13h-108.31c-1.11 0-2.01-.9-2.01-2v-26.87c0-1.11.9-2.01 2.01-2.01h108.31c1.11 0 2.01.9 2.01 2.01v26.87c0 1.1-.9 2-2.01 2zm-108.31-30.08c-.67 0-1.21.54-1.21 1.21v26.87c0 .66.54 1.2 1.21 1.2h108.31c.67 0 1.21-.54 1.21-1.2v-26.87c0-.67-.54-1.21-1.21-1.21h-108.31z" fill="#E8E7EE"/><path d="m174.05 314.12c4.65 0 8.42-3.78 8.42-8.43c0-4.65-3.77-8.42-8.42-8.42c-4.66 0-8.43 3.77-8.43 8.42c0 4.65 3.78 8.43 8.43 8.43z" fill="#E8E7EE"/><path d="m193.51 300.07c-.77 0-1.4.63-1.4 1.41c0 .77.63 1.4 1.4 1.4h66.19c.78.01 1.42-.61 1.43-1.38c.01-.78-.61-1.42-1.38-1.43h-66.25h.01z" fill="#E8E7EE"/><path d="m193.51 308.5c-.77 0-1.4.63-1.4 1.4c0 .78.63 1.4 1.4 1.4h66.19c.78.02 1.42-.6 1.43-1.38c.01-.78-.61-1.41-1.38-1.42h-66.25h.01z" fill="#E8E7EE"/><path d="m139.4 68.84c2.99 0 5.41-2.42 5.41-5.41c0-2.98-2.42-5.4-5.41-5.4c-2.98 0-5.4 2.42-5.4 5.4c0 2.99 2.42 5.41 5.4 5.41z" fill="#21B8D2"/><path d="m110.4 91.84c2.99 0 5.41-2.42 5.41-5.41c0-2.98-2.42-5.4-5.41-5.4c-2.98 0-5.4 2.42-5.4 5.4c0 2.99 2.42 5.41 5.4 5.41z" fill="#21B8D2"/><path d="m105 164.03c4.42 0 8-3.58 8-8c0-4.42-3.58-8-8-8c-4.42 0-8 3.58-8 8c0 4.42 3.58 8 8 8z" fill="#21B8D2"/><path d="m104.5 44.03c1.93 0 3.5-1.57 3.5-3.5c0-1.93-1.57-3.5-3.5-3.5c-1.93 0-3.5 1.57-3.5 3.5c0 1.93 1.57 3.5 3.5 3.5z" fill="#21B8D2"/><path d="m145 143.03c7.73 0 14-6.27 14-14c0-7.73-6.27-14-14-14c-7.73 0-14 6.27-14 14c0 7.73 6.27 14 14 14z" fill="#21B8D2"/><path d="m231.1 113.57s-5.09 5.36-8.11 17.72c-3.03 12.37-10.83 24.78-19.26 31.3c-1.18.92-2.3 1.86-3.36 2.81c-4.75 4.28-1.9 12.17 4.49 12.42l15.14.58c6.64.26 12.87-3.17 16.22-8.92c1.06-1.8 2.27-3.83 3.64-6.09c3.98-6.54 17.88-17.47 22.67-21.39c0 0-7.82-34.63-31.43-28.42v-.01z" fill="#161254"/><path d="m349.2 25.4c1.12.72 1.44 2.07-1.43 4.93c-2.87 2.87-25.94 17.83-31.36 28.33c-5.41 10.51-18.62 37.88-26.1 42.66c-7.48 4.77-38.52 17.98-47.75 17.03c-9.23-.96-12.09-3.03-11.46-4.78c.64-1.75 6.74-10.09 24.99-15.12c17.35-4.77 23.8-9.71 28.58-19.9c3.33-7.09 14.24-18.93 25.06-28c10.82-9.08 8.61-17.92 14.39-18.22c15.44-.79 22.91-8.33 25.08-6.93z" fill="#EFA5A5"/><path d="m263.2 141.53s35.02-28.65 41.81-43.71c6.79-15.07 8.54-49.82 15.92-58.68c5.28-6.35 15.91-12.52 14.64-20.37c-1.27-7.86-5.73 3.39-10.4 6.36c-4.67 2.97-17.19 4.88-18.46 9.98c-1.28 5.09 1.15 11.98-6 22.39c-18.51 26.95-5.67 33.31-23.5 43.07c-11.07 6.07-36.08 12.52-36.08 27.38c0 14.86 17.37 17.54 22.07 13.58z" fill="#FFB7B7"/><path d="m192.45 154.9c-5.77 3.06-14.88 13.11-5.14 28.77" stroke="#E8E7EE" stroke-width="2" stroke-linecap="round" stroke-linejoin="round"/><path d="m226 187.78c3.58 1.34 11.51 1.45 14.61-8.88" stroke="#E8E7EE" stroke-width="2" stroke-linecap="round" stroke-linejoin="round"/><path d="m222.25 196.38c6.71 2.52 21.56 2.72 27.37-16.63" stroke="#E8E7EE" stroke-width="2" stroke-linecap="round" stroke-linejoin="round"/><path d="m184.98 146.42c-8.54 4.54-22.02 19.4-7.61 42.57" stroke="#E8E7EE" stroke-width="2" stroke-linecap="round" stroke-linejoin="round"/></svg>